<svg version="1.1" viewBox="0.0 0.0 600.0 600.0" fill="none" stroke="none" stroke-linecap="square" stroke-miterlimit="10" xmlns:xlink="http://www.w3.org/1999/xlink" xmlns="http://www.w3.org/2000/svg"><clipPath id="g1b508c79d06_0_30.0"><path d="m0 0l600.0 0l0 600.0l-600.0 0l0 -600.0z" clip-rule="nonzero"/></clipPath><g clip-path="url(#g1b508c79d06_0_30.0)"><path fill="#000000" fill-opacity="0.0" d="m90.3937 300.0l0 0c0 -115.76236 93.84394 -209.6063 209.6063 -209.6063l0 0c55.591034 0 108.90524 22.083458 148.21405 61.392265c39.308777 39.308807 61.392242 92.622986 61.392242 148.21404l0 0c0 115.76236 -93.84393 209.6063 -209.6063 209.6063l0 0c-115.76236 0 -209.6063 -93.84393 -209.6063 -209.6063z" fill-rule="evenodd"/><path stroke="#204055" stroke-width="16.0" stroke-linejoin="round" stroke-linecap="butt" d="m90.3937 300.0l0 0c0 -115.76236 93.84394 -209.6063 209.6063 -209.6063l0 0c55.591034 0 108.90524 22.083458 148.21405 61.392265c39.308777 39.308807 61.392242 92.622986 61.392242 148.21404l0 0c0 115.76236 -93.84393 209.6063 -209.6063 209.6063l0 0c-115.76236 0 -209.6063 -93.84393 -209.6063 -209.6063z" fill-rule="evenodd"/><path fill="#204055" d="m258.25723 363.51486l0 0c-7.8015594 -7.8015747 -7.8015594 -20.450409 0 -28.251984l106.299225 -106.299194c3.7464294 -3.7464447 8.827698 -5.851181 14.125977 -5.851181c5.298279 0 10.379547 2.1047363 14.125977 5.851181l0 0l0 0c7.8015747 7.8015594 7.8015747 20.450394 0 28.251953l-106.299194 106.299225c-7.8015747 7.8015747 -20.450409 7.8015747 -28.251984 0z" fill-rule="evenodd"/><path fill="#204055" d="m203.49608 282.5538l0 0c7.8015594 -7.8015747 20.45163 -7.8027954 28.254715 -0.002746582l52.750397 52.72992l0 0c3.7471924 3.745697 5.8526 8.826263 5.853119 14.124023c5.187988E-4 5.29776 -2.1039124 10.378754 -5.8503723 14.125183l0 0l0 0c-7.801544 7.8015747 -20.45163 7.8027954 -28.2547 0.002746582l-52.750412 -52.72989c-7.8030853 -7.800049 -7.8043213 -20.447662 -0.002746582 -28.249237z" fill-rule="evenodd"/></g></svg>