<svg version="1.1" viewBox="0.0 0.0 600.0 600.0" fill="none" stroke="none" stroke-linecap="square" stroke-miterlimit="10" xmlns:xlink="http://www.w3.org/1999/xlink" xmlns="http://www.w3.org/2000/svg"><clipPath id="g1b508c79d06_0_25.0"><path d="m0 0l600.0 0l0 600.0l-600.0 0l0 -600.0z" clip-rule="nonzero"/></clipPath><g clip-path="url(#g1b508c79d06_0_25.0)"><path fill="#ffffff" d="m144.44095 108.35388c122.21521 -91.80078 244.43045 91.8008 366.64566 0l0 268.54156c-122.21521 91.80081 -244.43045 -91.80078 -366.64566 0z" fill-rule="evenodd"/><path stroke="#ffffff" stroke-width="16.0" stroke-linejoin="round" stroke-linecap="butt" d="m144.44095 108.35388c122.21521 -91.80078 244.43045 91.8008 366.64566 0l0 268.54156c-122.21521 91.80081 -244.43045 -91.80078 -366.64566 0z" fill-rule="evenodd"/><path fill="#ffffff" d="m88.91338 98.66164l0 0c0 -15.333519 12.430267 -27.763786 27.763779 -27.763786l0 0l0 0c7.3634186 0 14.42524 2.9251099 19.631966 8.131828c5.206711 5.2067184 8.131821 12.268539 8.131821 19.631958l0 415.937c0 15.333496 -12.430267 27.763794 -27.763786 27.763794l0 0l0 0c-15.333511 0 -27.763779 -12.430298 -27.763779 -27.763794z" fill-rule="evenodd"/><path stroke="#ffffff" stroke-width="16.0" stroke-linejoin="round" stroke-linecap="butt" d="m88.91338 98.66164l0 0c0 -15.333519 12.430267 -27.763786 27.763779 -27.763786l0 0l0 0c7.3634186 0 14.42524 2.9251099 19.631966 8.131828c5.206711 5.2067184 8.131821 12.268539 8.131821 19.631958l0 415.937c0 15.333496 -12.430267 27.763794 -27.763786 27.763794l0 0l0 0c-15.333511 0 -27.763779 -12.430298 -27.763779 -27.763794z" fill-rule="evenodd"/></g></svg>